# xmcd
#
# Track frame offsets:
#	150
#	833
#	4886
#	11576
#	14882
#	16823
#	26594
#	30720
#	42591
#	48528
#	53075
#	59700
#	62169
#	69837
#	73602
#	81103
#	84958
#	102646
#	103234
#	110614
#	112072
#	117202
#	121189
#	128878
#	130318
#	141959
#	142967
#	151580
#	162584
#	169835
#	176063
#	192774
#	194088
#	206292
#	207126
#	214792
#	223336
#	237316
#
# Disc length: 3229 seconds
#
# Revision: 1
# Processed by: cddbd v1.4PL0 Copyright (c) Steve Scherf et al.
# Submitted via: audiograbber 1.80
#
DISCID=2d0c9b26
DTITLE=Doug Moreland - # Fore
DYEAR=1900
DGENRE=
TTITLE0=Sideburn Burnside
TTITLE1=Pat Green
TTITLE2=I need a Girl
TTITLE3=Pooh Toast
TTITLE4=Moonshiner
TTITLE5=She's The One
TTITLE6=Ft. Davis Story
TTITLE7=Mark
TTITLE8=Booger
TTITLE9=Hay!!
TTITLE10=Donkey Song
TTITLE11=Nut Toast
TTITLE12=Simon
TTITLE13=Sugar Toast
TTITLE14=Screw Top Wine
TTITLE15=Douche
TTITLE16=Ballad of Poncho Y Rosita
TTITLE17=Sideburn Burnside
TTITLE18=Ding Dong Song
TTITLE19=Sideburn Burnside
TTITLE20=Morning Show
TTITLE21=Nascar Song
TTITLE22=The Stolen Beaver Story
TTITLE23=Canada's Toast
TTITLE24=Drinkin' Kills....Braincells
TTITLE25=Peter Toast
TTITLE26=Polka Song
TTITLE27=Kyle
TTITLE28=Armadillo
TTITLE29=Radio Talk
TTITLE30=Smurfy Song
TTITLE31=Sideburn Burnside
TTITLE32=Pooh Toast again
TTITLE33=Sideburn Burnside
TTITLE34=Porn Star
TTITLE35=Jalapeno Intro
TTITLE36=Jalapeno Song
TTITLE37=Sideburn....Burn....side!!
EXTD=
EXTT0=
EXTT1=
EXTT2=
EXTT3=
EXTT4=
EXTT5=
EXTT6=
EXTT7=
EXTT8=
EXTT9=
EXTT10=
EXTT11=
EXTT12=
EXTT13=
EXTT14=
EXTT15=
EXTT16=
EXTT17=
EXTT18=
EXTT19=
EXTT20=
EXTT21=
EXTT22=
EXTT23=
EXTT24=
EXTT25=
EXTT26=
EXTT27=
EXTT28=
EXTT29=
EXTT30=
EXTT31=
EXTT32=
EXTT33=
EXTT34=
EXTT35=
EXTT36=
EXTT37=
PLAYORDER=
